<svg width="461" height="517" viewBox="0 0 461 517" fill="none" xmlns="http://www.w3.org/2000/svg">
<g clip-path="url(#clip0_32_531)">
<path d="M201.044 490.509L199.579 496.595L199.931 496.959C199.853 497.145 199.775 497.331 199.681 497.517C198.902 499.186 198.012 500.806 197.015 502.367C195.699 504.443 194.225 506.444 192.697 508.408C191.858 509.494 190.996 510.573 190.134 511.644C190.11 511.68 190.084 511.715 190.055 511.748C190.065 511.71 190.078 511.673 190.094 511.637L189.812 511.577L188.19 504.897L187.696 505.953V505.961L186.896 507.709C186.959 508.029 187.022 508.341 187.1 508.653C187.092 508.646 187.092 508.631 187.084 508.624C187.077 508.616 187.077 508.616 187.077 508.609C186.975 508.401 186.865 508.2 186.763 507.991L185.54 510.655L183.063 510.119C181.762 509.479 180.461 508.832 179.168 508.162C161.5 499.064 145.142 487.452 134.129 471.644C129.752 465.346 126.443 458.435 124.324 451.164C120.146 436.717 120.867 421.169 128.47 408.262L128.47 408.259L128.472 408.257L128.475 408.255L128.478 408.254C128.666 407.927 128.862 407.6 129.066 407.272C129.215 407.644 129.356 408.016 129.512 408.388V408.396C131.556 413.447 134.022 418.336 136.888 423.014C137.108 423.378 137.327 423.743 137.562 424.1C144.563 435.253 153.684 445.075 164.463 453.068C164.493 453.095 164.524 453.12 164.557 453.142C164.595 453.172 164.634 453.199 164.675 453.224C167.073 455.01 169.553 456.688 172.113 458.261V458.268C174.112 459.503 176.166 460.671 178.251 461.779C182.695 464.13 187.531 466.392 191.685 469.211C195.722 471.941 199.124 475.192 200.935 479.544C201.076 479.894 201.209 480.243 201.327 480.593L198.097 490.048L201.044 490.509Z" fill="#F0F0F0"/>
<path d="M187.696 505.953V505.961L186.896 507.709C185.689 501.341 187.124 494.609 186.128 488.159C186.019 487.437 185.877 486.716 185.697 486.001C184.678 481.925 182.35 478.109 178.212 476.286C177.004 475.764 175.736 475.377 174.434 475.133C171.863 474.612 169.182 474.501 166.588 474.21C165.937 474.136 165.294 474.054 164.667 473.943C161.312 473.449 158.109 472.274 155.277 470.498C151.809 468.159 148.787 465.276 146.341 461.973C144.725 459.899 143.221 457.749 141.834 455.531C141.646 455.248 141.474 454.958 141.293 454.668C138.05 449.335 135.389 443.702 133.353 437.855C132.305 434.867 131.426 431.827 130.72 428.75C129.149 422.024 128.394 415.15 128.47 408.262C128.47 408.261 128.47 408.26 128.471 408.259C128.471 408.258 128.472 408.257 128.472 408.257C128.473 408.256 128.474 408.256 128.475 408.255C128.476 408.255 128.477 408.255 128.478 408.255C128.47 407.942 128.478 407.63 128.486 407.317C128.501 406.678 129.544 406.819 129.528 407.459C129.52 407.771 129.513 408.076 129.513 408.389V408.396C129.449 414.996 130.151 421.582 131.605 428.035C131.684 428.363 131.762 428.69 131.833 429.017C133.952 437.961 137.513 446.54 142.391 454.452C142.446 454.541 142.501 454.63 142.563 454.72C143.7 456.557 144.923 458.343 146.208 460.091C148.57 463.456 151.474 466.448 154.814 468.958C157.625 470.954 160.89 472.296 164.346 472.879C164.691 472.938 165.036 472.998 165.388 473.05C165.663 473.094 165.945 473.132 166.227 473.161C168.868 473.474 171.581 473.593 174.206 474.069C175.4 474.283 176.572 474.594 177.71 474.999C179.572 475.707 181.256 476.781 182.65 478.15C184.044 479.52 185.117 481.153 185.799 482.944C186.498 484.682 186.977 486.492 187.226 488.337C187.312 488.94 187.375 489.542 187.429 490.152V490.16C187.508 491.142 187.547 492.131 187.563 493.121C187.578 494.356 187.555 495.591 187.523 496.818C187.35 499.863 187.407 502.916 187.696 505.953Z" fill="white"/>
<path d="M142.28 455.322C139.293 456.762 135.864 457.147 132.605 456.409C129.347 455.671 126.471 453.858 124.491 451.293C124.092 450.773 124.925 450.161 125.325 450.682C127.164 453.073 129.843 454.762 132.879 455.443C135.914 456.125 139.107 455.754 141.88 454.397C142.483 454.103 142.879 455.03 142.28 455.322Z" fill="white"/>
<path d="M164.244 473.176C166.426 467.016 166.082 460.301 163.28 454.37C163.002 453.783 163.977 453.404 164.255 453.991C167.158 460.167 167.502 467.156 165.215 473.562C164.997 474.172 164.026 473.783 164.244 473.176Z" fill="white"/>
<path d="M131.301 428.127C132.579 427.798 133.751 427.174 134.711 426.309C135.672 425.444 136.391 424.367 136.805 423.173C137.015 422.56 137.986 422.95 137.777 423.559C137.314 424.876 136.518 426.065 135.458 427.022C134.399 427.98 133.109 428.677 131.7 429.052C131.571 429.098 131.428 429.095 131.3 429.044C131.172 428.994 131.07 428.899 131.013 428.779C130.961 428.656 130.962 428.519 131.016 428.397C131.069 428.275 131.172 428.178 131.301 428.127Z" fill="white"/>
<path d="M190.008 511.807C190.024 511.785 190.039 511.77 190.055 511.748C190.024 511.837 189.992 511.926 189.969 512.023L190.008 511.807Z" fill="#F0F0F0"/>
<path d="M213.311 466.012L212.214 469.657L205.473 468.459L203.239 474.998L202.855 476.122L201.326 480.593L198.097 490.048L201.044 490.509L199.578 496.594L199.931 496.959L200.041 497.07L200.77 497.829L205.206 502.427L193.072 512.284L191.129 511.86L190.133 511.644C190.11 511.68 190.083 511.715 190.055 511.748C190.064 511.71 190.077 511.672 190.094 511.636L189.812 511.577L188.189 504.896L187.695 505.953V505.96L186.896 507.708C186.959 508.028 187.021 508.341 187.1 508.653C187.092 508.646 187.092 508.631 187.084 508.623C187.076 508.616 187.076 508.616 187.076 508.609C186.974 508.4 186.865 508.199 186.763 507.991C185.211 504.919 183.729 501.802 182.358 498.648C178.977 491.051 176.325 483.181 174.433 475.132C174.355 474.783 174.269 474.433 174.206 474.076V474.069C173.056 468.865 172.356 463.58 172.113 458.268V458.26C171.988 455.352 172.019 452.439 172.207 449.534C172.703 442.025 174.441 434.637 177.357 427.641C177.372 427.603 177.388 427.574 177.404 427.537C182.992 414.191 192.829 402.615 206.202 396.448C206.758 396.18 207.33 395.927 207.903 395.689H207.918L207.926 395.682C208.287 395.533 208.639 395.392 209 395.243C208.882 395.63 208.757 396.017 208.647 396.411C207.065 401.609 205.933 406.921 205.261 412.294V412.301C205.198 412.71 205.143 413.134 205.096 413.551V413.558C203.618 426.517 204.686 439.624 208.247 452.212C208.255 452.249 208.271 452.279 208.279 452.316C209.609 456.99 211.29 461.567 213.311 466.012Z" fill="#F0F0F0"/>
<path d="M200.77 497.829C200.151 498.618 199.516 499.384 198.873 500.15C198.254 500.887 197.635 501.623 197.015 502.367C195.397 504.26 193.952 506.281 192.696 508.408C192.067 509.512 191.543 510.667 191.129 511.86L190.133 511.644C190.11 511.68 190.084 511.715 190.055 511.748C190.064 511.71 190.078 511.672 190.094 511.636C191.92 506.221 196.075 502.025 199.68 497.517C199.806 497.368 199.923 497.219 200.041 497.07L200.77 497.829Z" fill="white"/>
<path d="M209.259 395.659C209.055 395.905 208.843 396.158 208.647 396.411C207.119 398.293 205.674 400.234 204.313 402.236C201.888 405.766 199.735 409.458 197.87 413.283C197.721 413.58 197.572 413.885 197.431 414.19C193.439 422.547 190.837 431.441 189.718 440.555C189.702 440.644 189.694 440.726 189.687 440.815C189.428 442.943 189.261 445.078 189.185 447.22C188.935 451.255 189.355 455.302 190.431 459.212C190.588 459.725 190.76 460.231 190.948 460.722C191.42 461.926 192.01 463.084 192.712 464.181C193.216 464.983 193.777 465.751 194.389 466.48C194.758 466.927 195.142 467.365 195.55 467.79C195.785 468.035 196.028 468.28 196.271 468.526C196.474 468.712 196.67 468.905 196.874 469.091C198.991 471.04 201.326 472.848 203.239 474.998L202.855 476.121C201.013 473.904 198.638 472.067 196.498 470.133C195.155 468.934 193.932 467.619 192.845 466.205C192.704 466.012 192.555 465.818 192.422 465.617C191.696 464.61 191.069 463.542 190.549 462.426C190.282 461.868 190.039 461.295 189.82 460.7C188.539 456.854 187.956 452.829 188.095 448.797C188.121 446.215 188.283 443.635 188.581 441.068C188.613 440.733 188.652 440.406 188.699 440.071C189.494 433.961 190.943 427.944 193.026 422.113C195.661 414.716 199.286 407.671 203.811 401.149C205.104 399.282 206.476 397.46 207.926 395.682C208.114 395.436 208.31 395.198 208.514 394.953C208.929 394.447 209.674 395.153 209.259 395.659Z" fill="white"/>
<path d="M189.072 441.162C185.774 440.605 182.792 438.954 180.659 436.502C178.525 434.051 177.379 430.96 177.425 427.781C177.428 427.651 177.484 427.528 177.581 427.437C177.679 427.345 177.809 427.294 177.946 427.292C178.082 427.29 178.214 427.339 178.314 427.428C178.413 427.517 178.472 427.639 178.479 427.769C178.43 430.729 179.498 433.608 181.49 435.887C183.481 438.166 186.266 439.694 189.34 440.195C190.008 440.305 189.737 441.271 189.072 441.162Z" fill="white"/>
<path d="M195.283 467.967C200.933 464.296 204.918 458.738 206.443 452.402C206.593 451.774 207.612 452.028 207.462 452.656C205.862 459.246 201.703 465.022 195.814 468.831C195.252 469.194 194.724 468.328 195.283 467.967Z" fill="white"/>
<path d="M197.557 413.175C198.786 413.643 200.118 413.814 201.434 413.673C202.749 413.531 204.007 413.082 205.095 412.365C205.651 411.996 206.179 412.862 205.626 413.228C204.421 414.015 203.031 414.51 201.577 414.669C200.124 414.828 198.652 414.648 197.29 414.142C197.157 414.105 197.044 414.021 196.974 413.908C196.905 413.794 196.883 413.66 196.914 413.532C196.95 413.404 197.038 413.295 197.158 413.228C197.279 413.161 197.422 413.142 197.557 413.175Z" fill="white"/>
<path d="M309.298 83.2649C303.364 53.1214 312.707 18.8279 338.675 0.582031C337.203 33.9002 348.196 66.6386 369.709 93.0049C378.045 103.145 388.428 113.599 388.106 126.456C387.905 134.456 383.346 141.909 377.339 147.524C371.331 153.139 363.931 157.187 356.619 161.172L355.48 162.852C334.046 139.906 315.233 113.409 309.298 83.2649Z" fill="#F0F0F0"/>
<path d="M339.148 1.0427C328.238 24.2167 325.299 50.0641 330.748 74.9137C331.95 80.2307 333.656 85.5251 336.55 90.2489C339.408 94.8328 343.508 98.6066 348.423 101.178C352.954 103.664 357.893 105.708 361.709 109.195C365.732 112.871 367.523 117.888 367.374 123.13C367.191 129.543 364.591 135.512 361.835 141.265C358.775 147.653 355.489 154.241 355.688 161.423C355.712 162.293 354.288 162.277 354.264 161.409C353.919 148.914 363.436 138.88 365.557 126.891C366.547 121.296 365.766 115.385 361.622 111.049C357.998 107.257 352.907 105.145 348.296 102.666C343.454 100.063 339.332 96.8479 336.268 92.39C333.133 87.8299 331.205 82.5877 329.866 77.3232C326.922 65.3638 325.978 53.0394 327.068 40.8017C328.23 26.8282 331.902 13.1465 337.926 0.34838C338.299 -0.443594 339.519 0.2559 339.148 1.0427Z" fill="white"/>
<path d="M328.497 67.0105C323.98 67.3122 319.497 66.0803 315.849 63.5346C312.201 60.989 309.625 57.2954 308.581 53.1135C308.373 52.2666 309.75 51.9199 309.958 52.7679C310.922 56.6637 313.322 60.1041 316.725 62.468C320.127 64.8319 324.308 65.9637 328.512 65.659C329.426 65.5939 329.406 66.9457 328.497 67.0105Z" fill="white"/>
<path d="M345.95 100.205C352.082 93.6242 355.375 85.0914 355.173 76.3083C355.152 75.4381 356.576 75.4533 356.597 76.3224C356.789 85.4627 353.343 94.3358 346.946 101.171C346.336 101.822 345.343 100.853 345.95 100.205Z" fill="white"/>
<path d="M329.898 27.6675C331.672 27.8964 333.477 27.7037 335.152 27.1066C336.828 26.5096 338.321 25.527 339.497 24.247C340.099 23.5889 341.091 24.5588 340.494 25.2126C339.187 26.621 337.537 27.7043 335.687 28.3678C333.838 29.0314 331.845 29.2549 329.883 29.0189C329.696 29.0114 329.519 28.9366 329.389 28.8098C329.258 28.6829 329.183 28.5136 329.179 28.3361C329.182 28.1572 329.259 27.9866 329.394 27.8614C329.528 27.7362 329.71 27.6665 329.898 27.6675Z" fill="white"/>
<path d="M444.87 25.5148C444.506 25.9359 444.143 26.357 443.783 26.7891C438.933 32.474 434.577 38.5235 430.759 44.8779C430.455 45.3647 430.156 45.8624 429.868 46.3565C420.841 61.7588 414.905 78.6178 412.363 96.0765C411.358 103.025 410.911 110.035 411.027 117.048C411.187 126.732 412.173 137.22 409.045 146.127C408.73 147.06 408.354 147.973 407.92 148.862L357.728 164.039C357.596 164.019 357.467 164.011 357.334 163.991L355.359 164.684C355.327 164.323 355.301 163.947 355.268 163.586C355.249 163.376 355.24 163.164 355.22 162.954C355.21 162.813 355.201 162.672 355.184 162.546C355.181 162.499 355.178 162.452 355.178 162.416C355.161 162.29 355.159 162.17 355.146 162.055C354.996 159.957 354.858 157.856 354.743 155.748C354.74 155.737 354.74 155.737 354.747 155.722C353.886 139.666 354.429 123.4 357.557 107.729C357.651 107.257 357.741 106.775 357.858 106.297C359.309 99.2406 361.365 92.3087 364.006 85.5704C365.465 81.8852 367.119 78.2724 368.962 74.7458C373.744 65.6426 380.005 57.3098 387.515 50.053C402.489 35.5888 422.17 25.8305 443.258 25.5233C443.798 25.5158 444.326 25.5115 444.87 25.5148Z" fill="#F0F0F0"/>
<path d="M444.96 26.1536C421.548 38.4225 402.805 57.3808 391.392 80.3356C388.978 85.2675 386.982 90.4699 386.296 95.8953C385.671 101.189 386.55 106.544 388.843 111.406C390.884 115.98 393.531 120.434 394.366 125.399C395.246 130.633 393.493 135.662 390.049 139.762C385.834 144.778 379.972 148.058 374.122 151.077C367.626 154.428 360.824 157.812 356.426 163.659C355.894 164.368 354.766 163.542 355.298 162.834C362.949 152.661 376.914 150.087 386.213 141.727C390.551 137.825 393.678 132.659 393.12 126.829C392.632 121.731 389.907 117.135 387.798 112.521C385.582 107.676 384.331 102.754 384.713 97.4434C385.103 92.0114 386.889 86.724 389.159 81.7552C394.395 70.5241 401.459 60.1443 410.093 50.996C419.885 40.5032 431.497 31.6775 444.425 24.9009C445.225 24.4818 445.755 25.7372 444.96 26.1536Z" fill="white"/>
<path d="M394.608 72.7397C390.81 70.3996 388.012 66.8543 386.714 62.737C385.416 58.6198 385.702 54.1987 387.522 50.2632C387.893 49.4682 389.212 49.978 388.841 50.7742C387.139 54.4359 386.873 58.5542 388.09 62.3858C389.307 66.2174 391.927 69.51 395.477 71.6692C396.248 72.1393 395.375 73.2071 394.608 72.7397Z" fill="white"/>
<path d="M387.485 109.217C396.556 107.466 404.598 102.535 410.008 95.4065C410.544 94.6998 411.671 95.5257 411.136 96.2315C405.492 103.64 397.112 108.755 387.668 110.557C386.768 110.729 386.59 109.387 387.485 109.217Z" fill="white"/>
<path d="M420.684 42.1274C421.955 43.3235 423.519 44.2013 425.236 44.682C426.952 45.1627 428.767 45.2312 430.519 44.8815C431.416 44.6995 431.593 46.0411 430.702 46.2218C428.765 46.5997 426.76 46.5217 424.862 45.9945C422.965 45.4674 421.232 44.5073 419.815 43.1979C419.671 43.0851 419.577 42.9244 419.553 42.7483C419.529 42.5723 419.576 42.3942 419.686 42.2502C419.802 42.109 419.972 42.0169 420.159 41.9939C420.346 41.9709 420.534 42.0189 420.684 42.1274Z" fill="white"/>
<path d="M122.337 47.2545C119.563 45.3965 116.529 43.459 113.135 43.5364C104.921 43.7239 100.493 55.1521 92.2873 54.7502C87.0545 54.4939 83.5807 49.4487 78.7083 47.6193C72.365 45.2378 64.2926 49.8955 63.6006 56.3363L64.4152 55.6286C89.073 61.3337 114.661 62.4557 139.768 58.9325C133.958 55.0399 128.147 51.1472 122.337 47.2545Z" fill="#F0F0F0"/>
<path d="M137.705 61.0009C153.446 61.0009 166.207 48.8899 166.207 33.9502C166.207 19.0104 153.446 6.89941 137.705 6.89941C121.964 6.89941 109.203 19.0104 109.203 33.9502C109.203 48.8899 121.964 61.0009 137.705 61.0009Z" fill="#FF6582"/>
<path d="M204.422 28.7832C200.887 26.4153 197.02 23.9461 192.695 24.0449C182.227 24.2838 176.583 38.848 166.126 38.3358C159.457 38.0092 155.03 31.5795 148.821 29.2481C140.737 26.213 130.449 32.1489 129.567 40.3571L130.606 39.4553C162.03 46.726 194.64 48.1558 226.636 43.6659C219.231 38.705 211.827 33.7441 204.422 28.7832Z" fill="#F0F0F0"/>
<path d="M460.798 300.334L430.551 146.626C430.034 144.092 428.624 141.801 426.554 140.127C424.485 138.453 421.877 137.496 419.159 137.413C418.914 137.408 418.67 137.408 418.425 137.413L397.82 138.115L395.602 138.192L385.319 138.543L383.101 138.615L376.487 138.842L243.106 143.387C242.905 143.397 242.699 143.397 242.498 143.392L212.609 142.799L201.549 142.582L201.195 142.577L193.032 142.412L121.895 141.008L103.035 140.632L93.7355 140.451L91.5071 140.405L80.903 140.199L78.68 140.152L67.8313 139.941L65.6082 139.894L53.6888 139.657L51.8191 139.621L41.1878 139.409L39.5083 139.378H39.2638C36.4414 139.389 33.7139 140.347 31.5636 142.082C29.4132 143.817 27.9784 146.218 27.5128 148.86L0.157291 308.36C-0.120507 309.976 -0.0248818 311.63 0.437543 313.207C0.899968 314.784 1.71812 316.247 2.83536 317.494C3.95259 318.741 5.34219 319.743 6.90786 320.43C8.47354 321.117 10.1779 321.473 11.9028 321.473H169.003C171.315 321.479 173.565 322.184 175.427 323.485L178.405 325.579C180.458 327.013 182.939 327.79 185.488 327.797H278.071C279.636 327.801 281.185 327.51 282.63 326.942C284.075 326.373 285.387 325.539 286.49 324.486C288.376 322.696 290.893 321.632 293.556 321.499L449.721 313.689C451.415 313.605 453.069 313.178 454.575 312.438C456.081 311.698 457.402 310.66 458.451 309.396C459.5 308.131 460.252 306.668 460.657 305.105C461.062 303.542 461.11 301.916 460.798 300.334Z" fill="#CCCCCC"/>
<path d="M436.045 296.155L419.185 137.619C419.18 137.552 419.169 137.48 419.158 137.413C418.842 134.88 417.525 132.555 415.473 130.908L379.204 102.232C377.626 100.976 375.666 100.233 373.611 100.112C357.017 99.101 272.657 95.3559 241.518 121.009C240.574 121.789 239.46 122.364 238.256 122.692C237.052 123.02 235.787 123.093 234.55 122.907C233.311 122.717 232.129 122.274 231.086 121.61C230.043 120.946 229.163 120.076 228.507 119.059C225.859 115.143 222.39 111.785 218.315 109.196C216.486 107.991 214.58 106.893 212.608 105.91C210.864 105.038 208.967 104.192 206.901 103.377C205.124 102.676 203.227 102 201.195 101.355C190.656 98.0126 176.567 95.5159 157.74 94.6802C149.929 94.3294 141.44 94.283 132.51 94.5357C124.357 94.7627 115.693 95.2321 106.763 95.9337L106.632 95.9388L46.209 130.949C44.8544 131.751 43.7096 132.834 42.8612 134.118C42.0128 135.401 41.483 136.851 41.3119 138.357L41.1869 139.409L22.0006 302.113C21.8348 303.496 21.9687 304.896 22.394 306.227C22.8193 307.559 23.527 308.794 24.4736 309.856C25.395 310.892 26.5424 311.725 27.8365 312.299C29.1306 312.872 30.5405 313.172 31.9688 313.178H180.85C182.83 313.188 184.748 313.833 186.291 315.009L192.792 319.951C194.485 321.242 196.582 321.964 198.754 322.004L264.216 323.021H264.374C266.027 323.018 267.652 322.617 269.097 321.855L281.723 315.2C282.875 314.592 284.157 314.239 285.473 314.169L426.572 307.096C427.947 307.027 429.291 306.683 430.517 306.087C431.743 305.492 432.823 304.658 433.686 303.64C434.584 302.604 435.255 301.408 435.66 300.123C436.065 298.838 436.196 297.489 436.045 296.155Z" fill="#E6E6E6"/>
<path d="M386.796 267.565L384.82 242.889L376.488 138.845L375.25 123.453C374.937 119.41 373.048 115.623 369.953 112.83C366.858 110.037 362.777 108.438 358.507 108.344C327.977 107.6 272.694 108.91 245.566 126.161C242.549 128.108 238.889 128.947 235.268 128.523C231.647 128.099 228.312 126.44 225.884 123.855C222.13 119.944 217.623 116.75 212.606 114.444C208.934 112.697 205.117 111.239 201.193 110.085C189.71 106.603 175.22 104.488 157.722 103.739L116.195 103.509H116.125C113.248 103.511 110.48 104.553 108.384 106.423C106.287 108.292 105.019 110.849 104.838 113.574L103.035 140.63L95.1574 259.285C95.0101 261.495 95.3375 263.711 96.1199 265.798C96.9023 267.885 98.1234 269.799 99.7089 271.424C101.294 273.049 103.211 274.351 105.343 275.252C107.475 276.153 109.778 276.633 112.112 276.663C181.817 277.645 212.269 291.608 225.547 303.139C228.37 305.597 231.977 307.092 235.796 307.385C239.615 307.679 243.428 306.755 246.632 304.761C270.734 289.778 310.804 285.612 342.697 284.965C352.464 284.772 361.462 284.898 369.003 285.151C371.426 285.234 373.841 284.83 376.088 283.966C378.336 283.102 380.366 281.797 382.046 280.137C383.725 278.477 385.017 276.499 385.835 274.332C386.654 272.166 386.981 269.86 386.796 267.565Z" fill="white"/>
<path d="M40.7466 301.98C40.7206 301.98 40.6935 301.979 40.6674 301.977C40.522 301.968 40.3801 301.931 40.2497 301.869C40.1193 301.807 40.003 301.722 39.9075 301.617C39.8119 301.513 39.739 301.392 39.6929 301.26C39.6467 301.129 39.6282 300.991 39.6385 300.853L51.6319 140.127C51.6405 139.989 51.6781 139.853 51.7427 139.729C51.8072 139.604 51.8973 139.493 52.0078 139.402C52.1182 139.311 52.2466 139.242 52.3856 139.199C52.5246 139.156 52.6712 139.14 52.817 139.151C52.9623 139.161 53.1043 139.197 53.2347 139.259C53.3651 139.321 53.4813 139.407 53.5769 139.511C53.6724 139.615 53.7454 139.737 53.7915 139.868C53.8377 139.999 53.8561 140.138 53.8459 140.276L41.8525 301.001C41.8329 301.267 41.7079 301.516 41.5027 301.697C41.2975 301.879 41.0273 301.98 40.7466 301.98Z" fill="white"/>
<path d="M55.1802 295.658C55.1541 295.658 55.127 295.657 55.101 295.655C54.9556 295.645 54.8137 295.609 54.6833 295.547C54.5529 295.485 54.4366 295.399 54.3411 295.295C54.2455 295.191 54.1726 295.069 54.1264 294.938C54.0803 294.807 54.0618 294.668 54.0721 294.53L66.0655 133.805C66.0741 133.667 66.1117 133.531 66.1763 133.407C66.2408 133.282 66.3309 133.171 66.4413 133.08C66.5517 132.989 66.6802 132.92 66.8192 132.877C66.9581 132.834 67.1048 132.817 67.2505 132.829C67.3959 132.838 67.5379 132.875 67.6683 132.937C67.7986 132.999 67.9149 133.084 68.0105 133.189C68.106 133.293 68.1789 133.415 68.2251 133.546C68.2712 133.677 68.2897 133.815 68.2794 133.953L56.2861 294.679C56.2665 294.944 56.1415 295.193 55.9363 295.375C55.7311 295.557 55.4609 295.658 55.1802 295.658Z" fill="white"/>
<path d="M68.5024 292.497C68.4764 292.497 68.4493 292.496 68.4233 292.494C68.2779 292.484 68.1359 292.447 68.0056 292.386C67.8752 292.324 67.7589 292.238 67.6633 292.134C67.5678 292.029 67.4948 291.908 67.4487 291.777C67.4025 291.646 67.3841 291.507 67.3944 291.369L79.3878 130.644C79.3963 130.506 79.434 130.37 79.4985 130.246C79.563 130.121 79.6532 130.01 79.7636 129.919C79.874 129.828 80.0025 129.759 80.1414 129.716C80.2804 129.673 80.4271 129.656 80.5728 129.668C80.7182 129.677 80.8601 129.714 80.9905 129.776C81.1209 129.838 81.2372 129.923 81.3327 130.028C81.4283 130.132 81.5012 130.253 81.5474 130.385C81.5935 130.516 81.612 130.654 81.6017 130.792L69.6083 291.517C69.5888 291.783 69.4638 292.032 69.2586 292.214C69.0534 292.396 68.7832 292.497 68.5024 292.497Z" fill="white"/>
<path d="M81.8247 286.175C81.7987 286.175 81.7716 286.174 81.7455 286.172C81.6002 286.162 81.4582 286.125 81.3278 286.063C81.1974 286.002 81.0811 285.916 80.9856 285.812C80.89 285.707 80.8171 285.586 80.771 285.455C80.7248 285.324 80.7064 285.185 80.7166 285.047L92.71 124.322C92.7186 124.183 92.7562 124.048 92.8208 123.923C92.8853 123.799 92.9755 123.688 93.0859 123.597C93.1963 123.506 93.3248 123.437 93.4637 123.393C93.6027 123.35 93.7494 123.334 93.8951 123.345C94.0405 123.355 94.1824 123.392 94.3128 123.454C94.4432 123.515 94.5595 123.601 94.655 123.705C94.7506 123.81 94.8235 123.931 94.8697 124.062C94.9158 124.194 94.9343 124.332 94.924 124.47L82.9306 285.195C82.9111 285.461 82.7861 285.71 82.5809 285.892C82.3756 286.073 82.1054 286.175 81.8247 286.175Z" fill="white"/>
<path d="M422.661 303.034C422.687 303.034 422.714 303.033 422.74 303.031C422.885 303.021 423.027 302.984 423.158 302.923C423.288 302.861 423.404 302.775 423.5 302.671C423.595 302.566 423.668 302.445 423.714 302.314C423.761 302.183 423.779 302.044 423.769 301.906L411.775 141.181C411.767 141.042 411.729 140.907 411.665 140.782C411.6 140.658 411.51 140.547 411.399 140.456C411.289 140.365 411.161 140.296 411.022 140.253C410.883 140.209 410.736 140.193 410.59 140.205C410.445 140.214 410.303 140.251 410.173 140.313C410.042 140.375 409.926 140.46 409.83 140.565C409.735 140.669 409.662 140.79 409.616 140.921C409.57 141.053 409.551 141.191 409.561 141.329L421.555 302.054C421.574 302.32 421.699 302.569 421.905 302.751C422.11 302.933 422.38 303.034 422.661 303.034Z" fill="white"/>
<path d="M408.228 293.551C408.254 293.551 408.281 293.55 408.307 293.548C408.453 293.538 408.595 293.501 408.725 293.439C408.855 293.378 408.972 293.292 409.067 293.188C409.163 293.083 409.236 292.962 409.282 292.831C409.328 292.7 409.346 292.561 409.336 292.423L397.343 131.698C397.334 131.559 397.296 131.424 397.232 131.299C397.167 131.175 397.077 131.064 396.967 130.973C396.856 130.882 396.728 130.813 396.589 130.769C396.45 130.726 396.303 130.71 396.158 130.721C396.012 130.731 395.87 130.768 395.74 130.83C395.61 130.891 395.493 130.977 395.398 131.081C395.302 131.186 395.229 131.307 395.183 131.438C395.137 131.569 395.118 131.708 395.129 131.846L407.122 292.571C407.142 292.837 407.267 293.086 407.472 293.268C407.677 293.449 407.947 293.551 408.228 293.551Z" fill="white"/>
<path d="M394.905 283.014C394.931 283.014 394.958 283.013 394.984 283.011C395.129 283.001 395.271 282.964 395.402 282.902C395.532 282.841 395.648 282.755 395.744 282.651C395.839 282.546 395.912 282.425 395.959 282.294C396.005 282.162 396.023 282.024 396.013 281.886L384.019 121.161C384.011 121.022 383.973 120.887 383.909 120.762C383.844 120.638 383.754 120.527 383.644 120.436C383.533 120.345 383.405 120.275 383.266 120.232C383.127 120.189 382.98 120.173 382.834 120.184C382.689 120.194 382.547 120.231 382.417 120.292C382.286 120.354 382.17 120.44 382.074 120.544C381.979 120.649 381.906 120.77 381.86 120.901C381.814 121.032 381.795 121.171 381.805 121.309L393.799 282.034C393.818 282.3 393.943 282.549 394.149 282.731C394.354 282.912 394.624 283.013 394.905 283.014Z" fill="white"/>
<path d="M122.446 139.817C147.472 132.239 175.391 134.245 199.099 144.921C205.863 147.951 212.252 151.685 218.147 156.055C219.815 157.298 222.188 155.076 220.502 153.82C198.727 137.79 171.366 130.176 143.918 132.506C136.325 133.151 128.828 134.58 121.561 136.769C119.527 137.385 120.396 140.438 122.446 139.817Z" fill="#3F3D56"/>
<path d="M260.152 157.281C283.419 145.674 311.281 143.143 336.578 149.732C343.79 151.605 350.76 154.236 357.359 157.573C359.249 158.531 360.934 155.803 359.04 154.844C334.93 142.634 305.988 139.823 279.659 146.629C272.314 148.532 265.209 151.188 258.471 154.551C256.573 155.498 258.255 158.228 260.152 157.281Z" fill="#3F3D56"/>
<path d="M260.152 178.355C283.419 166.748 311.281 164.217 336.578 170.806C343.79 172.68 350.76 175.31 357.359 178.648C359.249 179.605 360.934 176.877 359.04 175.918C334.93 163.708 305.988 160.897 279.659 167.704C272.314 169.606 265.209 172.262 258.471 175.626C256.573 176.572 258.255 179.302 260.152 178.355Z" fill="#3F3D56"/>
<path d="M359.854 198.299C359.872 198.028 359.803 197.758 359.657 197.524C359.51 197.29 359.293 197.104 359.034 196.989C339.719 187.39 317.819 183.497 296.154 185.81C296.018 185.821 295.893 185.841 295.746 185.851H295.74C295.607 185.863 295.475 185.882 295.344 185.908C282.457 187.316 269.956 190.973 258.471 196.695C258.221 196.836 258.013 197.037 257.869 197.278C257.726 197.518 257.65 197.79 257.65 198.067V237.38C257.655 237.622 257.717 237.859 257.832 238.075C257.947 238.291 258.113 238.479 258.316 238.625C258.519 238.771 258.755 238.872 259.005 238.919C259.255 238.966 259.513 238.958 259.759 238.896C260.27 238.757 260.781 238.623 261.303 238.494C272.914 235.511 284.833 233.741 296.849 233.217C297.105 233.206 297.36 233.196 297.626 233.186C307.413 232.787 317.218 233.121 326.949 234.186C327.153 234.197 327.357 234.218 327.558 234.248C328.058 234.3 328.569 234.357 329.069 234.419C329.27 234.439 329.461 234.46 329.645 234.491C331.591 234.723 333.521 234.986 335.456 235.27C338.249 235.693 341.043 236.164 343.837 236.683C344.011 236.714 344.19 236.755 344.369 236.786C348.853 237.632 353.316 238.612 357.756 239.696C358.004 239.756 358.262 239.763 358.512 239.715C358.763 239.667 358.998 239.565 359.201 239.418C359.404 239.271 359.57 239.082 359.685 238.866C359.8 238.65 359.861 238.411 359.865 238.169V198.361C359.867 198.34 359.863 198.318 359.854 198.299Z" fill="#3F3D56"/>
<path d="M298.765 187.954C297.545 187.387 296.146 187.27 294.84 187.627C294.264 187.832 293.735 188.144 293.287 188.544C292.838 188.945 292.478 189.426 292.226 189.96C291.774 190.983 291.484 192.065 291.366 193.169C291.297 193.603 291.293 194.152 291.753 194.354C291.92 194.412 292.1 194.425 292.274 194.392C292.449 194.359 292.61 194.282 292.741 194.169C292.979 193.946 293.175 193.687 293.32 193.402C294.119 192.223 295.218 191.253 296.516 190.584C297.814 189.914 299.269 189.565 300.746 189.57L301.976 190.035C301.008 189.209 299.928 188.508 298.765 187.954Z" fill="#FF6582"/>
<path d="M312.073 197.014C311.119 195.681 309.988 194.258 308.218 193.822C306.167 193.318 304.06 194.32 302.273 195.308C296.96 198.245 291.814 201.448 286.858 204.903L286.864 204.955L298.367 204.284C301.137 204.123 304.002 203.939 306.451 202.832C307.33 202.309 308.312 201.962 309.338 201.812C309.974 201.845 310.597 201.997 311.171 202.259C311.745 202.522 312.259 202.889 312.682 203.341C317.984 208.11 319.518 215.403 325.465 219.593C321.681 211.722 317.201 204.169 312.073 197.014Z" fill="white"/>
<path d="M297.629 233.184C297.363 233.195 297.107 233.205 296.852 233.216C294.998 232.584 293.099 232.025 291.179 231.54C289.935 231.224 288.67 230.94 287.404 230.698C285.972 230.403 284.529 230.171 283.085 229.971C280.337 229.591 277.568 229.37 274.792 229.307C274.771 229.309 274.75 229.307 274.729 229.301C274.709 229.295 274.691 229.284 274.675 229.271C274.659 229.258 274.647 229.241 274.638 229.223C274.629 229.204 274.625 229.185 274.625 229.165C274.625 229.144 274.629 229.125 274.638 229.106C274.647 229.088 274.659 229.072 274.675 229.058C274.691 229.045 274.709 229.035 274.729 229.028C274.75 229.022 274.771 229.02 274.792 229.022C275.147 229.022 275.502 229.033 275.847 229.054C278.629 229.151 281.402 229.408 284.151 229.823C285.583 230.044 287.015 230.308 288.437 230.603C289.724 230.877 291.012 231.182 292.278 231.52C294.087 232.004 295.871 232.559 297.629 233.184Z" fill="white"/>
<path d="M329.647 234.491C329.458 234.459 329.269 234.438 329.07 234.417C328.304 233.817 327.527 233.248 326.716 232.689C325.706 231.994 324.662 231.34 323.596 230.729C321.236 229.369 318.772 228.179 316.224 227.168C312.197 225.576 308.028 224.328 303.768 223.438C298.908 222.427 293.988 221.695 289.035 221.246C284.083 220.761 279.11 220.466 274.136 220.171C273.925 220.161 273.914 219.866 274.136 219.876C274.758 219.918 275.38 219.95 276.012 219.992C281.041 220.287 286.071 220.624 291.067 221.162C296.02 221.666 300.934 222.475 305.777 223.585C309.911 224.552 313.947 225.868 317.834 227.516C320.07 228.469 322.236 229.564 324.318 230.792C325.639 231.583 326.916 232.426 328.137 233.321C328.648 233.701 329.159 234.08 329.647 234.491Z" fill="white"/>
<path d="M327.56 234.249C327.358 234.218 327.154 234.197 326.949 234.186C326.716 234.007 326.472 233.838 326.228 233.67C324.519 232.508 322.735 231.449 320.888 230.498C319.21 229.632 317.487 228.848 315.725 228.148C311.699 226.552 307.53 225.303 303.268 224.418C298.408 223.408 293.488 222.676 288.536 222.227C283.584 221.742 278.61 221.447 273.637 221.152C273.426 221.131 273.426 220.846 273.637 220.857C274.27 220.899 274.891 220.93 275.513 220.973C280.542 221.268 285.572 221.605 290.568 222.142C295.521 222.646 300.435 223.456 305.278 224.566C309.413 225.531 313.448 226.846 317.335 228.496C318.8 229.128 320.233 229.813 321.631 230.561C323.706 231.642 325.688 232.875 327.56 234.249Z" fill="white"/>
<path d="M344.369 236.789C344.191 236.757 344.013 236.715 343.836 236.683C343.636 236.483 343.447 236.272 343.259 236.061C342.304 235.018 341.36 233.965 340.427 232.9C336.753 228.749 333.267 224.471 329.98 220.109C327.16 216.379 324.485 212.575 321.953 208.697C320.743 206.864 319.577 205.009 318.434 203.134C317.546 201.68 316.68 200.222 315.836 198.761C315.592 198.339 315.359 197.918 315.126 197.496C314.581 196.506 314.037 195.505 313.46 194.525C312.833 193.324 311.911 192.284 310.773 191.49C310.205 191.129 309.547 190.915 308.864 190.869C307.901 190.872 306.955 191.104 306.111 191.543C299.899 194.288 294.04 197.7 288.647 201.711C283.38 205.599 278.617 210.067 274.458 215.019C274.325 215.167 274.036 215.03 274.158 214.872C274.658 214.282 275.169 213.692 275.679 213.112C279.676 208.625 284.177 204.565 289.102 201.005C289.113 200.995 289.135 200.984 289.146 200.974C289.579 200.647 290.012 200.331 290.456 200.025C293.206 198.104 296.068 196.331 299.028 194.715C300.537 193.882 302.08 193.092 303.657 192.344C304.045 192.154 304.445 191.964 304.845 191.785C305.245 191.596 305.644 191.417 306.044 191.237C306.835 190.855 307.7 190.629 308.586 190.574C311.673 190.532 313.26 193.482 314.359 195.473C314.704 196.095 315.059 196.717 315.403 197.338C316.735 199.688 318.123 202.027 319.567 204.335C320.443 205.768 321.354 207.19 322.275 208.602C323.597 210.615 324.951 212.606 326.361 214.587L326.362 214.591L326.364 214.595L326.368 214.597L326.372 214.598C328.004 216.937 329.703 219.234 331.457 221.521C334.466 225.43 337.619 229.251 340.916 232.985C342.049 234.27 343.199 235.538 344.369 236.789Z" fill="white"/>
<path d="M359.867 232.141V232.626C358.768 231.404 357.647 230.192 356.537 228.98C356.07 228.474 355.604 227.969 355.138 227.463C353.162 225.335 351.174 223.213 349.176 221.099C347.166 218.991 345.157 216.884 343.125 214.787C342.637 214.281 342.148 213.776 341.649 213.27C341.249 212.845 340.814 212.45 340.35 212.09C339.881 211.719 339.342 211.437 338.762 211.257C338.095 211.082 337.391 211.074 336.719 211.236C335.953 211.405 335.22 211.668 334.477 211.889C333.71 212.132 332.956 212.364 332.19 212.595C330.657 213.07 329.136 213.544 327.604 214.018C327.585 214.025 327.565 214.029 327.545 214.028C327.524 214.028 327.504 214.024 327.485 214.016C327.467 214.008 327.45 213.997 327.436 213.983C327.422 213.968 327.411 213.952 327.404 213.933C327.396 213.914 327.392 213.892 327.393 213.87C327.394 213.849 327.4 213.828 327.41 213.809C327.421 213.79 327.436 213.773 327.454 213.76C327.472 213.747 327.493 213.738 327.516 213.733C327.893 213.618 328.282 213.502 328.67 213.386C330.213 212.901 331.745 212.427 333.289 211.953C334.055 211.71 334.821 211.478 335.587 211.247C336.297 210.991 337.048 210.848 337.807 210.825C339.047 210.91 340.21 211.428 341.071 212.279C341.549 212.701 341.982 213.143 342.415 213.596C342.925 214.123 343.436 214.65 343.947 215.177C346.001 217.305 348.04 219.441 350.064 221.583C352.096 223.733 354.109 225.886 356.104 228.042C356.248 228.201 356.392 228.359 356.537 228.517C357.658 229.718 358.757 230.93 359.867 232.141Z" fill="white"/>
<path d="M304.76 190.252L304.453 190.38C303.749 189.252 302.763 188.307 301.582 187.629C300.401 186.95 299.062 186.559 297.683 186.49C293.138 186.184 289.145 189.059 288.782 192.898C288.635 194.479 289.117 196.055 290.134 197.316L289.849 197.475C288.79 196.163 288.288 194.522 288.441 192.875C288.819 188.877 292.977 185.883 297.711 186.202C299.146 186.274 300.541 186.681 301.771 187.388C303 188.094 304.027 189.078 304.76 190.252Z" fill="#FF6582"/>
<path d="M282.3 198.021C281.107 197.528 279.808 197.312 278.51 197.391C277.211 197.469 275.951 197.84 274.834 198.472C278.914 199.066 282.958 199.863 286.949 200.86C285.296 200.042 284.004 198.76 282.3 198.021Z" fill="white"/>
<path d="M274.812 198.469L274.362 198.777C274.514 198.669 274.672 198.568 274.834 198.472L274.812 198.469Z" fill="white"/>
<path d="M340.177 214.031C339.758 213.518 339.199 213.124 338.561 212.891L337.929 212.912C342.885 220.23 349.376 226.5 356.999 231.329C351.392 225.563 345.785 219.797 340.177 214.031Z" fill="white"/>
<path d="M288.34 200.257C288.16 200.088 287.982 199.92 287.802 199.751C286.42 198.324 284.756 197.168 282.904 196.35C281.962 195.973 280.95 195.775 279.927 195.767C278.871 195.79 277.826 195.983 276.836 196.336C276.371 196.493 275.916 196.671 275.468 196.861C274.956 197.079 274.453 197.311 273.952 197.545C273.012 197.985 272.084 198.444 271.169 198.921C269.347 199.872 267.583 200.896 265.875 201.992C264.99 202.561 264.123 203.148 263.275 203.754C262.485 204.317 261.712 204.894 260.955 205.487C260.793 205.614 260.551 205.409 260.713 205.283C260.912 205.126 261.114 204.97 261.316 204.816C261.886 204.38 262.466 203.953 263.054 203.534C264.128 202.769 265.229 202.033 266.358 201.328C268.113 200.229 269.929 199.205 271.805 198.256C272.743 197.782 273.693 197.327 274.657 196.893C274.948 196.762 275.242 196.634 275.54 196.512C276.219 196.223 276.921 195.982 277.638 195.791C278.667 195.511 279.744 195.422 280.808 195.528C281.827 195.651 282.817 195.94 283.733 196.382C285.548 197.348 287.185 198.587 288.581 200.052C288.727 200.19 288.487 200.396 288.34 200.257Z" fill="white"/>
<path d="M122.446 160.89C147.472 153.312 175.391 155.319 199.099 165.994C205.863 169.024 212.252 172.759 218.147 177.129C219.815 178.371 222.188 176.149 220.502 174.893C198.727 158.864 171.366 151.249 143.918 153.579C136.325 154.224 128.828 155.653 121.561 157.842C119.527 158.458 120.396 161.511 122.446 160.89Z" fill="#3F3D56"/>
<path d="M122.446 181.964C147.471 174.386 175.391 176.393 199.098 187.068C205.863 190.098 212.252 193.833 218.147 198.203C219.814 199.445 222.187 197.223 220.502 195.968C198.726 179.938 171.366 172.323 143.918 174.653C136.324 175.298 128.828 176.727 121.561 178.916C119.526 179.532 120.396 182.585 122.446 181.964Z" fill="#3F3D56"/>
<path d="M122.446 203.038C147.472 195.46 175.391 197.466 199.099 208.141C205.863 211.172 212.252 214.906 218.147 219.276C219.815 220.518 222.188 218.296 220.502 217.041C198.727 201.011 171.366 193.396 143.918 195.726C136.325 196.371 128.828 197.801 121.561 199.989C119.527 200.605 120.396 203.658 122.446 203.038Z" fill="#3F3D56"/>
<path d="M122.446 224.112C147.471 216.534 175.391 218.54 199.098 229.216C205.863 232.246 212.252 235.98 218.147 240.35C219.814 241.593 222.187 239.371 220.502 238.115C198.726 222.086 171.366 214.471 143.918 216.801C136.324 217.446 128.828 218.875 121.561 221.064C119.526 221.68 120.396 224.733 122.446 224.112Z" fill="#3F3D56"/>
<path d="M122.446 245.186C147.471 237.608 175.391 239.614 199.098 250.29C205.863 253.32 212.252 257.054 218.147 261.424C219.814 262.666 222.187 260.445 220.502 259.189C198.726 243.159 171.366 235.545 143.918 237.875C136.324 238.519 128.828 239.949 121.561 242.138C119.526 242.754 120.396 245.807 122.446 245.186Z" fill="#3F3D56"/>
<path d="M212.609 105.91V164.975C212.609 165.981 210.761 166.822 208.267 167.049C207.832 167.09 207.375 167.111 206.902 167.111C205.529 167.136 204.163 166.924 202.869 166.487C202.63 166.398 202.397 166.293 202.174 166.172C201.554 165.826 201.195 165.419 201.195 164.975V101.355C203.228 102 205.125 102.676 206.902 103.378C208.968 104.193 210.865 105.039 212.609 105.91Z" fill="#C76625"/>
<path d="M236.53 126.162H234.899V317.222H236.53V126.162Z" fill="#E6E6E6"/>
<path d="M382.053 280.129C380.372 281.79 378.341 283.095 376.092 283.961C373.843 284.826 371.428 285.231 369.003 285.151C361.462 284.898 352.464 284.771 342.697 284.965L342.643 284.92L384.969 232.846L386.795 267.564C386.978 269.857 386.651 272.161 385.834 274.326C385.017 276.491 383.729 278.468 382.053 280.129Z" fill="#F2F2F2"/>
<path d="M276.684 462.129L274.426 479.522L272.702 492.741L272.012 498.075H262.198V493.336L262.191 477.654V462.129H276.684Z" fill="#FFB6B6"/>
<path d="M208.256 460.306L205.473 468.459L203.239 474.998L202.855 476.122L201.327 480.592L198.098 490.048L196.491 494.757L187.563 493.12L186.85 492.994L187.43 490.152L187.782 488.418L191.686 469.211L192.321 466.116L192.423 465.617L192.713 464.182L194.029 457.702L203.545 459.443L204.642 459.644L208.256 460.306Z" fill="#FFB6B6"/>
<path d="M291.427 358.553C285.815 387.827 284.412 400.466 284.412 400.466C284.412 400.466 288.621 405.123 285.815 407.786C283.009 410.449 285.815 415.768 285.815 415.768L279.505 480.303L274.426 479.522L262.19 477.655L257.777 476.978L260.583 416.438C260.583 416.438 257.777 411.111 259.18 409.78C260.583 408.448 257.777 400.466 257.777 400.466L254.273 337.262L232.538 406.454C232.538 406.454 234.646 409.117 232.538 411.111C230.437 413.105 226.236 423.088 226.236 423.088L213.311 466.012L212.213 469.657L205.472 468.46L198.136 467.15L196.788 466.912L194.389 466.481L192.845 466.206L192.32 466.116L189.78 465.663L190.548 462.427L190.948 460.723L201.883 414.63L202.133 413.566L202.4 412.443C202.4 412.443 200.997 409.117 203.097 407.116C203.712 406.506 204.161 405.764 204.405 404.952C204.65 404.141 204.682 403.285 204.501 402.459C204.432 402.39 204.369 402.315 204.312 402.236C204.064 401.913 203.893 401.542 203.811 401.15C203.623 400.317 203.787 399.149 205.206 397.802C205.605 397.4 205.941 396.943 206.201 396.449C208.333 392.617 209.407 384.501 209.407 384.501C209.407 384.501 211.304 320.219 217.512 310.4C217.757 309.971 218.103 309.602 218.523 309.321C225.531 305.334 292.822 309.321 292.822 309.321C292.822 309.321 292.916 309.782 293.065 310.66C293.872 315.592 296.185 333.721 291.427 358.553Z" fill="#2F2E41"/>
<path d="M289.222 240.458L291.187 229.224L327.37 235.003L378.708 238.489C379.822 237.32 381.304 236.523 382.934 236.217C384.563 235.911 386.254 236.114 387.752 236.793C389.251 237.473 390.479 238.594 391.252 239.99C392.026 241.385 392.304 242.98 392.045 244.537C391.785 246.095 391.003 247.531 389.815 248.633C388.626 249.734 387.094 250.442 385.448 250.65C383.801 250.859 382.127 250.557 380.676 249.79C379.225 249.023 378.073 247.831 377.393 246.393L345.907 248.403L289.222 240.458Z" fill="#FFB6B6"/>
<path d="M262.175 232.681L264.729 222.653C264.729 222.653 278.603 220.229 289.572 222.548L330.836 230.064L327.497 253.738L262.175 232.681Z" fill="#C76625"/>
<path d="M166.397 315.261L189.483 267.662L206.33 233.985L220.942 242.147L175.456 320.498C175.855 321.895 175.809 323.373 175.324 324.745C174.838 326.117 173.935 327.322 172.728 328.207C171.521 329.092 170.065 329.617 168.544 329.716C167.022 329.815 165.504 329.484 164.181 328.765C162.857 328.045 161.789 326.969 161.11 325.673C160.431 324.377 160.172 322.919 160.366 321.483C160.561 320.048 161.199 318.699 162.201 317.608C163.203 316.517 164.523 315.732 165.995 315.353C166.128 315.318 166.262 315.288 166.397 315.261Z" fill="#FFB6B6"/>
<path d="M232.977 219.556L221.771 214.677C221.771 214.677 219.784 214.022 215.499 219.653C211.214 225.284 174.355 278.416 174.355 278.416L197.761 288.457L232.977 219.556Z" fill="#C76625"/>
<path d="M289.366 508.43L274.779 498.863V492.622L272.702 492.741L262.198 493.336L259.431 493.492L257.519 515.229L257.495 515.534H264.385L264.448 515.229L265.616 509.36L268.602 515.229L268.759 515.534H287.038C287.587 515.533 288.13 515.43 288.637 515.229C289.315 514.958 289.904 514.518 290.342 513.956C290.779 513.393 291.049 512.73 291.124 512.035C291.198 511.34 291.075 510.638 290.765 510.004C290.456 509.37 289.972 508.826 289.366 508.43Z" fill="#2F2E41"/>
<path d="M211.563 509.003L205.206 502.427L200.769 497.829L200.04 497.07L199.931 496.959L199.578 496.594L201.044 490.509L198.097 490.048L187.781 488.419L187.225 488.337L186.128 488.158L185.877 488.121L182.357 498.648L179.167 508.162L178.822 509.204L183.063 510.119L185.54 510.654L186.762 507.991L186.896 507.708L187.695 505.96V505.953L188.189 504.896L189.811 511.577L190.094 511.636L190.133 511.644L191.128 511.86L193.072 512.284L206.664 515.229L207.628 515.438C208.69 515.662 209.802 515.479 210.723 514.929C211.643 514.379 212.297 513.505 212.542 512.499C212.69 511.885 212.678 511.245 212.507 510.636C212.337 510.027 212.012 509.467 211.563 509.003Z" fill="#2F2E41"/>
<path d="M274.472 188.865C272.887 191.626 270.686 194.026 268.024 195.896C265.361 197.767 262.3 199.064 259.055 199.697C258.694 199.771 258.334 199.83 257.965 199.883C252.873 200.638 247.661 199.736 243.178 197.323C238.694 194.91 235.203 191.128 233.273 186.593C231.342 182.057 231.085 177.035 232.544 172.343C234.003 167.652 237.091 163.567 241.307 160.753C245.523 157.939 250.618 156.562 255.764 156.846C260.909 157.13 265.802 159.058 269.646 162.316C273.49 165.575 276.059 169.972 276.936 174.792C277.812 179.613 276.944 184.573 274.472 188.865Z" fill="#FFB6B6"/>
<path d="M265.396 159.458C257.926 154.582 251.348 153.84 245.945 155.222C245.244 154.194 244.262 153.366 243.103 152.828C238.889 142.75 226.064 136.698 215.058 139.64C203.981 142.601 196.338 154.247 198.422 164.988C199.714 171.646 204.129 177.412 205.905 183.969C209.343 196.662 200.957 211.203 187.838 215.294C200.259 217.661 213.931 210.46 218.388 199.205C220.552 193.738 220.682 187.769 220.958 181.934C221.03 177.907 221.55 173.898 222.509 169.975C222.984 168.215 223.657 166.507 224.514 164.883C226.381 161.311 229.483 158.455 233.301 156.791C232.959 157.795 232.874 158.861 233.052 159.903C233.229 160.944 233.666 161.93 234.324 162.78C231.411 166.243 229.826 169.988 229.826 172.231C223.774 182.728 232.428 191.744 243.488 197.487C247.899 199.79 252.993 200.633 257.965 199.882L258.428 198.008L259.055 199.697L261.147 205.358C263.562 206.466 265.955 207.681 268.327 209.003C267.426 204.986 266.697 200.976 266.195 197.056C265.501 191.72 267.922 183.776 269.669 178.945C270.752 175.968 271.308 172.841 271.314 169.691V169.553L273.015 174.738L279.207 172.231C278.055 165.96 279.207 158.841 265.396 159.458Z" fill="#2F2E41"/>
<path d="M217.82 303.334C218.634 300.278 218.634 297.077 217.82 294.02C216.418 289.363 219.222 287.368 219.222 287.368L219.923 215.517C222.884 212.706 230.819 212.66 235.258 212.879V209.715C235.258 208.549 235.745 207.432 236.613 206.608C237.482 205.784 238.659 205.321 239.887 205.321H260.414C261.642 205.321 262.819 205.784 263.687 206.608C264.555 207.432 265.043 208.549 265.043 209.715V213.507L271.064 213.597C281.548 214.338 290.721 224.165 290.721 224.165L281.609 257.43C281.609 257.43 284.413 284.706 287.917 288.033C291.422 291.359 290.02 293.355 290.02 293.355C290.02 293.355 287.917 300.673 292.123 303.334C296.329 305.996 293.525 310.653 293.525 310.653C293.525 310.653 217.82 311.983 215.717 309.987C213.614 307.992 217.82 303.334 217.82 303.334Z" fill="#C76625"/>
<path d="M357.307 516.115C357.308 516.231 357.284 516.346 357.237 516.454C357.19 516.561 357.122 516.659 357.035 516.742C356.948 516.824 356.845 516.889 356.732 516.933C356.619 516.978 356.497 517 356.374 517H136.676C136.429 517 136.191 516.907 136.016 516.741C135.841 516.575 135.743 516.35 135.743 516.115C135.743 515.88 135.841 515.655 136.016 515.489C136.191 515.323 136.429 515.229 136.676 515.229H356.374C356.497 515.229 356.619 515.252 356.732 515.296C356.845 515.341 356.948 515.406 357.035 515.488C357.122 515.57 357.19 515.668 357.237 515.776C357.284 515.883 357.308 515.998 357.307 516.115Z" fill="#CCCCCC"/>
</g>
<defs>
<clipPath id="clip0_32_531">
<rect width="461" height="517" fill="white"/>
</clipPath>
</defs>
</svg>
