<svg width="40" height="40" viewBox="0 0 40 40" fill="none" xmlns="http://www.w3.org/2000/svg">
<path d="M27.9946 32.2598C29.2149 32.2598 30.2292 31.899 31.0374 31.1773C31.8457 30.4556 32.267 29.373 32.3015 27.9296C32.3374 26.7028 31.934 25.6743 31.0912 24.8444C30.2485 24.0144 29.2163 23.5995 27.9946 23.5995C26.7729 23.5995 25.75 24.0144 24.926 24.8444C24.1019 25.6743 23.6892 26.7028 23.6878 27.9296C23.6863 29.1565 24.0991 30.1849 24.926 31.0149C25.7529 31.8448 26.7758 32.2598 27.9946 32.2598ZM27.9946 36.59C25.6258 36.59 23.598 35.742 21.9112 34.046C20.2243 32.35 19.3809 30.3112 19.3809 27.9296C19.3809 25.548 20.2243 23.5092 21.9112 21.8133C23.598 20.1173 25.6258 19.2693 27.9946 19.2693C30.3634 19.2693 32.3912 20.1173 34.0781 21.8133C35.7649 23.5092 36.6083 25.548 36.6083 27.9296C36.6083 28.7596 36.51 29.5448 36.3133 30.2852C36.1166 31.0257 35.8202 31.72 35.424 32.3681L39.4078 36.3735C39.8026 36.7704 40 37.2756 40 37.889C40 38.5025 39.8026 39.0077 39.4078 39.4046C39.013 39.8015 38.5105 40 37.9004 40C37.2903 40 36.7878 39.8015 36.393 39.4046L32.4091 35.3992C31.7631 35.7961 31.0726 36.0942 30.3375 36.2934C29.6025 36.4926 28.8215 36.5914 27.9946 36.59ZM2.90713 38.1055C2.18932 38.3942 1.52535 38.3134 0.915208 37.8631C0.305069 37.4127 0 36.8079 0 36.0487V5.73748C0 5.26838 0.134948 4.85341 0.404845 4.49256C0.674742 4.13171 1.04226 3.86107 1.5074 3.68065L11.5209 0.270636C11.9874 0.090212 12.454 0 12.9206 0C13.3872 0 13.8537 0.090212 14.3203 0.270636L25.8412 4.33018L35.8546 0.433018C36.5725 0.144339 37.2364 0.225891 37.8466 0.677673C38.4567 1.12945 38.7618 1.73351 38.7618 2.48985V17.1042C38.7618 17.7176 38.4747 18.1326 37.9004 18.3491C37.3262 18.5656 36.8057 18.4574 36.3392 18.0244C35.1548 17.014 33.8541 16.2468 32.4371 15.7229C31.0202 15.1989 29.5393 14.9377 27.9946 14.9391H27.0794C26.7564 14.9391 26.4513 14.9752 26.1642 15.0474C25.5182 15.1195 24.9439 14.9658 24.4415 14.5862C23.939 14.2066 23.6877 13.7108 23.6878 13.0988V8.11908L15.074 5.08796V31.1231C15.074 31.8088 14.886 32.4222 14.5098 32.9635C14.1337 33.5047 13.6398 33.9017 13.0283 34.1543L2.90713 38.1055Z" fill="url(#paint0_linear_6_554)"/>
<defs>
<linearGradient id="paint0_linear_6_554" x1="32.5" y1="31" x2="0.5" y2="-53" gradientUnits="userSpaceOnUse">
<stop stop-color="#7B4019"/>
<stop offset="1" stop-color="#E1752E"/>
</linearGradient>
</defs>
</svg>
