<svg width="584" height="433" viewBox="0 0 584 433" fill="none" xmlns="http://www.w3.org/2000/svg">
<g clip-path="url(#clip0_32_777)">
<path d="M57.6723 152.305H58.2924C65.0332 152.297 71.4958 149.576 76.2624 144.739C81.0289 139.901 83.7101 133.343 83.7177 126.501V117.69H159.373V116.432H82.4774V126.501C82.47 132.9 80.0039 139.043 75.6034 143.625C71.2029 148.207 65.2149 150.867 58.9125 151.039V116.432H40.9288C38.4626 116.429 36.0982 115.433 34.3544 113.664C32.6105 111.894 31.6296 109.494 31.6268 106.991V10.6991C31.6296 8.19625 32.6105 5.79669 34.3544 4.02688C36.0982 2.25707 38.4626 1.26155 40.9288 1.25872H277.818C280.284 1.26155 282.649 2.25707 284.393 4.02688C286.136 5.79669 287.117 8.19625 287.12 10.6991V80.5581H288.36V10.6991C288.357 7.86252 287.245 5.14301 285.269 3.13723C283.293 1.13144 280.613 0.00319329 277.818 0H40.9288C38.1338 0.00319329 35.4541 1.13144 33.4778 3.13723C31.5014 5.14301 30.3897 7.86252 30.3866 10.6991V106.991C30.3897 109.828 31.5014 112.547 33.4778 114.553C35.4541 116.559 38.1338 117.687 40.9288 117.69H57.6723V152.305Z" fill="#CCCCCC"/>
<path d="M80.0093 31.789C80.0873 29.7584 80.9367 27.8373 82.3794 26.4283C83.8221 25.0192 85.7462 24.2316 87.7485 24.2304H230.998C233.054 24.2304 235.026 25.0592 236.48 26.5346C237.933 28.0099 238.75 30.0109 238.75 32.0974C238.75 34.1838 237.933 36.1848 236.48 37.6602C235.026 39.1355 233.054 39.9644 230.998 39.9644H87.7485C85.6935 39.9615 83.7236 39.1317 82.2705 37.657C80.8174 36.1823 79.9997 34.183 79.9969 32.0974C79.9948 31.9944 79.999 31.8914 80.0093 31.789Z" fill="#CCCCCC"/>
<path d="M80.0093 58.2221C80.0873 56.1916 80.9367 54.2705 82.3794 52.8614C83.8221 51.4523 85.7462 50.6647 87.7485 50.6635H230.998C233.054 50.6635 235.026 51.4924 236.48 52.9677C237.933 54.4431 238.75 56.4441 238.75 58.5305C238.75 60.617 237.933 62.618 236.48 64.0933C235.026 65.5687 233.054 66.3975 230.998 66.3975H87.7485C85.6935 66.3946 83.7236 65.5649 82.2705 64.0901C80.8174 62.6154 79.9997 60.6161 79.9969 58.5305C79.9948 58.4276 79.999 58.3246 80.0093 58.2221Z" fill="#CCCCCC"/>
<path d="M80.0093 84.6553C80.0872 82.6247 80.9366 80.7036 82.3793 79.2946C83.8221 77.8855 85.7462 77.0978 87.7485 77.0966H230.998C232.135 77.0967 233.257 77.3504 234.286 77.8399C235.315 78.3293 236.225 79.0425 236.952 79.9288C237.27 80.321 237.553 80.7424 237.795 81.1875H169.295C166.829 81.1905 164.465 82.1861 162.721 83.9559C160.978 85.7256 159.997 88.1251 159.994 90.6279V92.8307H87.7485C85.6935 92.8278 83.7235 91.998 82.2704 90.5233C80.8173 89.0486 79.9997 87.0492 79.9968 84.9637C79.9948 84.8607 79.9989 84.7577 80.0093 84.6553Z" fill="#CCCCCC"/>
<path d="M568.796 430.926C568.459 431.207 568.121 431.476 567.776 431.741H482.568C481.933 431.476 481.301 431.205 480.672 430.926C471.676 426.953 463.304 421.663 455.821 415.224C450.852 410.952 446.282 406.541 442.968 402.408C438.345 396.639 434.087 390.354 432.107 383.191C430.131 376.029 430.721 367.819 435.136 361.88C436.502 360.053 438.183 358.491 440.096 357.27C440.413 357.066 440.735 356.87 441.064 356.687C446.556 353.687 452.962 352.905 458.998 354.498C467.534 356.736 474.627 362.985 479.688 370.314C484.749 377.639 488.034 386.053 491.271 394.373C494.557 379.523 504.506 366.221 517.946 359.459C531.381 352.696 548.074 352.777 561.225 360.103C565.362 362.422 569.1 365.409 572.291 368.948C572.608 369.295 572.917 369.65 573.222 370.008C579.637 377.546 583.649 387.198 583.979 397.153C584.127 403.581 582.838 409.959 580.208 415.809C577.578 421.658 573.677 426.827 568.796 430.926Z" fill="#F2F2F2"/>
<path d="M485.974 431.741H484.769C484.753 431.468 484.733 431.199 484.708 430.926C484.287 425.594 483.406 420.31 482.074 415.134C479.017 403.318 473.797 392.192 466.686 382.335C459.595 372.448 450.655 364.073 440.377 357.689C440.302 357.646 440.238 357.585 440.189 357.512C440.14 357.44 440.108 357.357 440.096 357.27C440.076 357.156 440.089 357.039 440.132 356.932C440.176 356.825 440.248 356.733 440.341 356.666C440.434 356.6 440.544 356.561 440.658 356.555C440.772 356.55 440.885 356.577 440.984 356.634C441.011 356.65 441.038 356.668 441.064 356.687C446.887 360.289 452.293 364.544 457.179 369.372C465.918 378.025 472.966 388.278 477.948 399.591C482.344 409.498 485.037 420.096 485.91 430.926C485.934 431.199 485.954 431.472 485.974 431.741Z" fill="white"/>
<path d="M573.222 370.008C573.214 370.013 573.204 370.016 573.194 370.017C572.315 370.18 571.431 370.351 570.555 370.534C563.368 372.032 556.331 374.201 549.536 377.012C542.759 379.819 536.24 383.229 530.056 387.203C523.863 391.174 518.024 395.686 512.604 400.687C507.184 405.681 502.212 411.154 497.746 417.042C494.409 421.453 491.375 426.092 488.665 430.926C488.512 431.195 488.364 431.468 488.215 431.741H486.837C486.982 431.468 487.131 431.195 487.283 430.926C490.562 425.003 494.321 419.368 498.522 414.078C503.167 408.225 508.317 402.802 513.909 397.875C519.466 392.975 525.43 388.573 531.735 384.716C538.066 380.844 544.722 377.548 551.625 374.867C558.324 372.268 565.241 370.287 572.291 368.949C572.487 368.912 572.68 368.875 572.877 368.838C573.628 368.7 573.949 369.849 573.222 370.008Z" fill="white"/>
<path d="M549.261 412.562C540.871 411.39 532.349 411.585 524.019 413.139C515.713 414.68 507.694 417.526 500.252 421.573C496.069 423.854 492.099 426.515 488.391 429.525C487.785 430.017 488.643 430.877 489.243 430.39C495.75 425.137 503.044 420.976 510.847 418.065C518.589 415.159 526.727 413.483 534.973 413.098C539.638 412.88 544.314 413.096 548.941 413.741C549.095 413.778 549.257 413.755 549.395 413.676C549.532 413.596 549.635 413.467 549.682 413.314C549.724 413.157 549.703 412.991 549.624 412.85C549.545 412.709 549.415 412.606 549.261 412.562Z" fill="white"/>
<path d="M169.916 81.1875H406.805C409.6 81.1915 412.279 82.32 414.255 84.3256C416.231 86.3312 417.343 89.0503 417.347 91.8866V188.179C417.343 191.015 416.231 193.734 414.255 195.74C412.279 197.745 409.6 198.874 406.805 198.878H390.061V233.493H389.441C382.7 233.486 376.237 230.765 371.471 225.927C366.704 221.089 364.023 214.53 364.016 207.689V198.878H169.916C167.121 198.874 164.442 197.745 162.466 195.74C160.489 193.734 159.377 191.015 159.373 188.179V91.8866C159.377 89.0503 160.489 86.3312 162.466 84.3256C164.442 82.32 167.121 81.1915 169.916 81.1875ZM160.614 188.179C160.617 190.682 161.598 193.081 163.341 194.851C165.085 196.621 167.449 197.616 169.916 197.619H365.256V207.689C365.265 214.087 367.731 220.23 372.131 224.812C376.532 229.394 382.519 232.055 388.821 232.228V197.619H406.805C409.271 197.616 411.635 196.621 413.379 194.851C415.123 193.081 416.104 190.682 416.107 188.179V91.8866C416.104 89.3838 415.123 86.9844 413.379 85.2146C411.635 83.4449 409.271 82.4493 406.805 82.4462H169.916C167.449 82.4493 165.085 83.4449 163.341 85.2146C161.598 86.9844 160.617 89.3838 160.614 91.8866V188.179Z" fill="#3F3D56"/>
<path d="M216.735 105.418H359.985C361.987 105.419 363.912 106.207 365.354 107.616C366.797 109.025 367.646 110.946 367.724 112.977C367.735 113.079 367.739 113.182 367.737 113.285C367.734 115.37 366.916 117.37 365.463 118.844C364.01 120.319 362.04 121.149 359.985 121.152H216.735C214.679 121.152 212.708 120.323 211.254 118.848C209.8 117.372 208.984 115.371 208.984 113.285C208.984 111.198 209.8 109.197 211.254 107.722C212.708 106.247 214.679 105.418 216.735 105.418Z" fill="#C76625"/>
<path d="M216.735 131.851H359.985C361.987 131.852 363.912 132.64 365.354 134.049C366.797 135.458 367.646 137.379 367.724 139.41C367.735 139.512 367.739 139.615 367.737 139.718C367.734 141.804 366.916 143.803 365.463 145.278C364.01 146.752 362.04 147.582 359.985 147.585H216.735C214.679 147.585 212.708 146.756 211.254 145.281C209.8 143.805 208.984 141.804 208.984 139.718C208.984 137.632 209.8 135.631 211.254 134.155C212.708 132.68 214.679 131.851 216.735 131.851Z" fill="#C76625"/>
<path d="M216.735 158.284H359.985C361.987 158.285 363.912 159.073 365.354 160.482C366.797 161.891 367.646 163.812 367.724 165.843C367.735 165.945 367.739 166.048 367.737 166.151C367.734 168.237 366.916 170.236 365.463 171.711C364.01 173.185 362.04 174.015 359.985 174.018H216.735C214.679 174.018 212.708 173.189 211.254 171.714C209.8 170.239 208.984 168.238 208.984 166.151C208.984 164.065 209.8 162.064 211.254 160.588C212.708 159.113 214.679 158.284 216.735 158.284Z" fill="#C76625"/>
<path d="M444.641 297.511C444.92 297.511 445.199 297.493 445.476 297.458C446.43 297.339 447.349 297.017 448.172 296.513C448.995 296.009 449.703 295.334 450.251 294.532C450.799 293.731 451.174 292.821 451.352 291.862C451.529 290.903 451.505 289.917 451.28 288.968C451.227 288.748 451.163 288.53 451.088 288.317L471.778 261.434C472.689 260.242 473.197 258.782 473.226 257.274C473.255 255.765 472.804 254.287 471.94 253.059L464.692 242.843L455.219 250.26L459.025 256.895L443.954 283.705C443.651 283.733 443.35 283.783 443.054 283.853C441.43 284.249 440.006 285.236 439.051 286.626C438.096 288.016 437.677 289.714 437.872 291.397C438.068 293.08 438.865 294.632 440.112 295.759C441.36 296.886 442.971 297.509 444.641 297.511Z" fill="#A0616A"/>
<path d="M408.834 424.893L401.231 424.892L397.614 395.131L408.835 395.131L408.834 424.893Z" fill="#A0616A"/>
<path d="M386.569 432.056L410.463 432.057L410.463 422.688L395.801 422.687C394.589 422.687 393.388 422.929 392.268 423.4C391.148 423.871 390.13 424.561 389.273 425.431C388.416 426.301 387.736 427.334 387.272 428.47C386.808 429.607 386.569 430.826 386.569 432.056Z" fill="#2F2E41"/>
<path d="M471.467 424.893L463.864 424.892L460.248 395.131L471.468 395.131L471.467 424.893Z" fill="#A0616A"/>
<path d="M449.202 432.056L473.096 432.057L473.097 422.688L458.434 422.687C457.222 422.687 456.022 422.929 454.901 423.4C453.781 423.871 452.764 424.561 451.906 425.431C451.049 426.301 450.369 427.334 449.905 428.47C449.441 429.607 449.202 430.826 449.202 432.056Z" fill="#2F2E41"/>
<path d="M466.801 244.292L449.732 250.875L445.565 239.127C445.011 237.567 445.019 235.858 445.587 234.304C446.154 232.749 447.245 231.448 448.667 230.631C450.104 229.804 451.786 229.526 453.408 229.847C455.03 230.169 456.485 231.068 457.511 232.383L466.801 244.292Z" fill="#C76625"/>
<path d="M410.185 400.868C410.867 400.867 411.529 400.637 412.067 400.212C412.605 399.787 412.989 399.193 413.157 398.523C421.669 365.475 430.311 348.91 439.579 329.755C439.811 329.278 440.186 328.888 440.652 328.642C441.117 328.396 441.647 328.307 442.166 328.388C442.684 328.469 443.164 328.716 443.534 329.093C443.905 329.47 444.147 329.957 444.226 330.483L455.714 397.855C455.828 398.607 456.208 399.29 456.783 399.779C457.357 400.267 458.087 400.527 458.836 400.51L475.891 400.088C476.304 400.079 476.712 399.986 477.089 399.813C477.466 399.639 477.805 399.39 478.084 399.081C478.38 398.784 478.606 398.423 478.745 398.026C478.885 397.629 478.936 397.205 478.893 396.785C471.169 345.086 465.087 298.29 453.391 284.013C453.067 283.702 452.695 283.445 452.291 283.254L452.646 283.199C452.747 283.183 453.017 283.141 453.02 282.865L453.024 282.599L452.757 282.548C452.331 282.532 451.906 282.597 451.503 282.739L424.81 286.908C424.071 287.024 423.398 287.408 422.917 287.99C422.436 288.572 422.181 289.311 422.197 290.07C420.746 296.96 418.522 307.359 418.323 307.872C404.081 335.35 398.555 356.989 392.811 393.938C392.692 394.722 392.87 395.522 393.308 396.178C393.747 396.834 394.414 397.297 395.175 397.475L409.49 400.788C409.718 400.841 409.951 400.868 410.185 400.868Z" fill="#2F2E41"/>
<path d="M425.165 291.414C425.405 291.414 425.643 291.385 425.876 291.329L452.157 284.984C452.559 284.889 452.939 284.71 453.271 284.46C453.603 284.211 453.881 283.894 454.089 283.531C454.302 283.155 454.439 282.739 454.491 282.308C454.542 281.878 454.508 281.441 454.389 281.024C451.555 271.053 455.271 258.692 459.709 246.821C460.273 243.349 459.72 239.785 458.132 236.658C456.544 233.53 454.004 231.005 450.891 229.458L450.819 229.422L437.022 230.129C434.756 230.732 432.655 231.848 430.875 233.394C429.096 234.94 427.685 236.875 426.748 239.053C421.43 251.685 419.907 267.894 422.094 288.606C422.174 289.376 422.532 290.089 423.099 290.607C423.666 291.126 424.402 291.413 425.165 291.414Z" fill="#C76625"/>
<path d="M421.63 262.58C423.032 262.583 424.401 262.141 425.545 261.317L435.724 253.954L428.461 244.304L421.905 248.135L395.561 232.711C395.535 232.403 395.488 232.098 395.419 231.797C395.111 230.464 394.419 229.254 393.433 228.32C392.447 227.386 391.21 226.769 389.878 226.549C388.546 226.328 387.18 226.513 385.953 227.081C384.725 227.648 383.69 228.572 382.98 229.736C382.269 230.9 381.915 232.252 381.962 233.62C382.008 234.989 382.454 236.313 383.242 237.424C384.029 238.536 385.124 239.385 386.388 239.865C387.651 240.345 389.027 240.434 390.34 240.121C390.557 240.068 390.772 240.004 390.983 239.928L417.446 261.116C418.639 262.067 420.113 262.583 421.63 262.58Z" fill="#A0616A"/>
<path d="M438.953 256.959L423.854 246.538L430.95 236.338C431.892 234.984 433.276 234.011 434.856 233.592C436.437 233.173 438.113 233.334 439.587 234.047C441.079 234.769 442.268 236.008 442.938 237.541C443.608 239.074 443.716 240.8 443.243 242.407L438.953 256.959Z" fill="#C76625"/>
<path d="M446.215 224.192C437.803 224.192 430.984 217.272 430.984 208.735C430.984 200.198 437.803 193.277 446.215 193.277C454.627 193.277 461.446 200.198 461.446 208.735C461.446 217.272 454.627 224.192 446.215 224.192Z" fill="#A0616A"/>
<path d="M444.819 224.55C447.105 224.54 448.869 222.097 448.766 219.779C448.664 217.462 447.13 215.422 445.282 214.057C443.434 212.691 441.267 211.859 439.206 210.855C437.145 209.851 435.102 208.598 433.83 206.671C433.061 205.409 432.603 203.979 432.492 202.5C432.382 201.021 432.623 199.536 433.196 198.172C434.38 195.442 436.413 193.182 438.983 191.737C442.802 189.468 447.322 188.743 451.644 189.705C455.966 190.667 459.772 193.247 462.305 196.929L464.914 204.14C467.573 207.385 467.995 212.205 466.36 216.085C464.726 219.966 461.245 222.886 457.318 224.274C453.334 225.574 449.068 225.704 445.014 224.649" fill="#2F2E41"/>
<path d="M461.277 201.406C462.32 199.773 463.743 198.426 465.421 197.483C467.098 196.54 468.979 196.03 470.896 195.999C472.814 195.968 474.709 196.416 476.416 197.304C478.122 198.191 479.587 199.492 480.682 201.09C482.514 203.765 483.179 207.062 484.439 210.059C486.721 215.425 490.871 219.75 496.096 222.207C491.521 223.023 486.963 220.661 483.306 217.755C479.648 214.849 476.431 211.302 472.335 209.079C469.113 207.337 465.493 206.493 461.844 206.634" fill="#2F2E41"/>
<path d="M333.075 433H569.345C569.509 433 569.667 432.934 569.783 432.816C569.9 432.698 569.965 432.538 569.965 432.371C569.965 432.204 569.9 432.044 569.783 431.926C569.667 431.808 569.509 431.741 569.345 431.741H333.075C332.911 431.741 332.753 431.808 332.637 431.926C332.521 432.044 332.455 432.204 332.455 432.371C332.455 432.538 332.521 432.698 332.637 432.816C332.753 432.934 332.911 433 333.075 433Z" fill="#3F3D56"/>
<path d="M36.5877 230.346C16.3809 230.346 3.8147e-05 213.721 3.8147e-05 193.214C3.8147e-05 172.706 16.3809 156.081 36.5877 156.081C56.7945 156.081 73.1753 172.706 73.1753 193.214C73.1753 213.721 56.7945 230.346 36.5877 230.346Z" fill="#E6E6E6"/>
<path d="M33.0983 219.68C34.5884 219.638 36.443 219.585 37.8709 218.526C38.2962 218.198 38.6457 217.779 38.8949 217.299C39.144 216.819 39.2868 216.29 39.3132 215.748C39.339 215.363 39.2767 214.978 39.1313 214.621C38.9858 214.265 38.7611 213.947 38.4747 213.694C38.0491 213.371 37.5507 213.162 37.025 213.085C36.4992 213.008 35.9629 213.066 35.4649 213.254L36.6815 204.231L35.7885 204.107L34.3583 214.714L35.104 214.367C35.9686 213.964 37.1554 213.76 37.8929 214.392C38.074 214.557 38.2151 214.763 38.3051 214.992C38.3952 215.222 38.4319 215.47 38.4124 215.716C38.3905 216.119 38.2834 216.513 38.0982 216.87C37.913 217.228 37.6542 217.54 37.3393 217.787C36.2281 218.611 34.7498 218.718 33.073 218.765L33.0983 219.68Z" fill="#3F3D56"/>
<path d="M41.0975 205.009H45.9521V205.924H41.0975V205.009Z" fill="#3F3D56"/>
<path d="M25.7743 205.009H30.6289V205.924H25.7743V205.009Z" fill="#3F3D56"/>
<path d="M54.3865 192.377C58.2959 191.925 61.3236 188.123 61.6561 184.266C62.0518 179.678 59.4187 175.319 55.8063 172.744C52.0286 170.052 47.3219 168.927 42.7679 168.68C33.8843 168.231 25.1537 171.151 18.274 176.873C14.8617 179.75 11.6748 183.413 10.4669 187.839C9.41797 191.682 10.2716 196.036 13.3174 198.728C14.0708 199.388 14.9509 199.882 15.9019 200.179C16.8529 200.476 17.8542 200.57 18.8428 200.455C21.2061 200.206 23.3867 198.945 25.2742 197.552C28.9459 194.842 31.9601 191.068 36.4334 189.652C39.7134 188.614 43.9698 189.528 45.9742 192.538C46.429 193.227 46.7237 194.012 46.8361 194.834C46.8775 195.009 46.8518 195.194 46.7641 195.35C46.6765 195.507 46.5334 195.624 46.364 195.678C46.1911 195.725 46.0069 195.701 45.8512 195.611C45.6955 195.522 45.581 195.373 45.5324 195.198C45.0062 191.407 40.4125 189.992 37.189 190.858C32.489 192.121 29.334 196.377 25.4778 199.081C23.4818 200.592 21.1301 201.544 18.6578 201.844C16.5142 202.015 14.3869 201.351 12.7073 199.989C9.41301 197.349 8.15319 192.808 8.88165 188.72C9.72521 183.986 12.8649 179.928 16.3098 176.787C23.2936 170.486 32.3603 167.086 41.7032 167.266C46.4685 167.377 51.4407 168.376 55.5461 170.932C59.5282 173.411 62.6061 177.56 63.0084 182.381C63.3625 186.626 61.1188 191.065 57.2674 192.924C56.3593 193.361 55.3855 193.64 54.3865 193.749C53.5235 193.849 53.5305 192.476 54.3865 192.377Z" fill="#3F3D56"/>
</g>
<defs>
<clipPath id="clip0_32_777">
<rect width="584" height="433" fill="white" transform="matrix(-1 0 0 1 584 0)"/>
</clipPath>
</defs>
</svg>
